HIERARCHY
ROOT newVegas:Hips
{
	OFFSET 0.000000 96.479958 0.000000
	CHANNELS 6 Xposition Yposition Zposition Xrotation Yrotation Zrotation
	JOINT newVegas:Pelvis
	{
		OFFSET 0.000000 0.000000 0.000000
		CHANNELS 3 Xrotation Yrotation Zrotation
		JOINT newVegas:LeftUpLeg
		{
			OFFSET 18.735201 -5.666702 -4.541200
			CHANNELS 3 Xrotation Yrotation Zrotation
			JOINT newVegas:LeftLeg
			{
				OFFSET -0.021200 -31.938179 0.493100
				CHANNELS 3 Xrotation Yrotation Zrotation
				JOINT newVegas:LeftFoot
				{
					OFFSET 0.021200 -31.938179 -4.336299
					CHANNELS 3 Xrotation Yrotation Zrotation
					JOINT newVegas:LeftToeBase
					{
						OFFSET 0.943001 -26.722000 15.023500
						CHANNELS 3 Xrotation Yrotation Zrotation
						End Site
						{
							OFFSET 0.000000 30.670183 0.000000
						}
					}
				}
				JOINT newVegas:Left_PantLeg
				{
					OFFSET 0.663870 -9.044666 -1.108900
					CHANNELS 3 Xrotation Yrotation Zrotation
					End Site
					{
						OFFSET 1.415995 20.635357 0.000000
					}
				}
			}
		}
		JOINT newVegas:RightUpLeg
		{
			OFFSET -18.735201 -5.666702 -4.541200
			CHANNELS 3 Xrotation Yrotation Zrotation
			JOINT newVegas:RightLeg
			{
				OFFSET 0.018946 -31.938133 0.493100
				CHANNELS 3 Xrotation Yrotation Zrotation
				JOINT newVegas:RightFoot
				{
					OFFSET -0.018946 -31.938126 -4.336299
					CHANNELS 3 Xrotation Yrotation Zrotation
					JOINT newVegas:RightToeBase
					{
						OFFSET -0.943001 -26.722004 15.023500
						CHANNELS 3 Xrotation Yrotation Zrotation
						End Site
						{
							OFFSET 0.000000 30.670187 0.000000
						}
					}
				}
				JOINT newVegas:Right_PantLeg
				{
					OFFSET -0.661674 -9.044716 -1.108900
					CHANNELS 3 Xrotation Yrotation Zrotation
					End Site
					{
						OFFSET -1.415958 20.635269 0.000000
					}
				}
			}
		}
	}
	JOINT newVegas:Spine
	{
		OFFSET 0.000000 10.199997 -0.299500
		CHANNELS 3 Xrotation Yrotation Zrotation
		JOINT newVegas:Spine1
		{
			OFFSET 0.000000 11.900002 -1.516600
			CHANNELS 3 Xrotation Yrotation Zrotation
			JOINT newVegas:Spine2
			{
				OFFSET 0.000000 13.600006 -2.842500
				CHANNELS 3 Xrotation Yrotation Zrotation
				JOINT newVegas:Neck
				{
					OFFSET 0.000000 9.624100 -2.890100
					CHANNELS 3 Xrotation Yrotation Zrotation
					JOINT newVegas:Head
					{
						OFFSET 0.000000 14.068802 -1.351900
						CHANNELS 3 Xrotation Yrotation Zrotation
						JOINT newVegas:Hair_Back
						{
							OFFSET 0.000000 3.231903 -17.524799
							CHANNELS 3 Xrotation Yrotation Zrotation
							End Site
							{
								OFFSET 0.000000 19.849884 0.000000
							}
						}
						JOINT newVegas:Hair_Front
						{
							OFFSET 0.000000 31.260406 4.573800
							CHANNELS 3 Xrotation Yrotation Zrotation
							JOINT newVegas:Hair_Front1
							{
								OFFSET 0.000000 2.284103 11.993300
								CHANNELS 3 Xrotation Yrotation Zrotation
								JOINT newVegas:Hair_Front2
								{
									OFFSET 0.000000 2.284103 11.993300
									CHANNELS 3 Xrotation Yrotation Zrotation
									End Site
									{
										OFFSET 0.000000 12.208862 0.000000
									}
								}
							}
						}
						JOINT newVegas:Jowel
						{
							OFFSET 0.000000 -7.458206 6.864100
							CHANNELS 3 Xrotation Yrotation Zrotation
							End Site
							{
								OFFSET 0.000000 19.849884 0.000000
							}
						}
					}
				}
				JOINT newVegas:LeftShoulder
				{
					OFFSET 15.263000 10.923401 -0.547700
					CHANNELS 3 Xrotation Yrotation Zrotation
					JOINT newVegas:LeftArm
					{
						OFFSET 25.438599 -2.830597 -13.032500
						CHANNELS 3 Xrotation Yrotation Zrotation
						JOINT newVegas:LeftForeArm
						{
							OFFSET 29.960503 0.000000 0.000000
							CHANNELS 3 Xrotation Yrotation Zrotation
							JOINT newVegas:LeftHand
							{
								OFFSET 27.849251 0.000000 0.000000
								CHANNELS 3 Xrotation Yrotation Zrotation
								JOINT newVegas:LeftHandThumb1
								{
									OFFSET 4.487587 -3.305161 6.305391
									CHANNELS 3 Xrotation Yrotation Zrotation
									JOINT newVegas:LeftHandThumb2
									{
										OFFSET 5.480453 -3.164139 3.164143
										CHANNELS 3 Xrotation Yrotation Zrotation
										JOINT newVegas:LeftHandThumb3
										{
											OFFSET 5.159721 -2.978973 2.978967
											CHANNELS 3 Xrotation Yrotation Zrotation
											End Site
											{
												OFFSET 2.494507 5.926697 1.738678
											}
										}
									}
								}
								JOINT newVegas:LeftHandIndex1
								{
									OFFSET 18.578728 -0.527832 5.208049
									CHANNELS 3 Xrotation Yrotation Zrotation
									JOINT newVegas:LeftHandIndex2
									{
										OFFSET 3.192009 0.000000 0.000000
										CHANNELS 3 Xrotation Yrotation Zrotation
										JOINT newVegas:LeftHandIndex3
										{
											OFFSET 3.835129 0.000000 0.000000
											CHANNELS 3 Xrotation Yrotation Zrotation
											End Site
											{
												OFFSET -0.034599 3.816971 0.371180
											}
										}
									}
								}
								JOINT newVegas:LeftHandMiddle1
								{
									OFFSET 18.476105 0.000000 0.000000
									CHANNELS 3 Xrotation Yrotation Zrotation
									JOINT newVegas:LeftHandMiddle2
									{
										OFFSET 3.324875 0.000000 0.000000
										CHANNELS 3 Xrotation Yrotation Zrotation
										JOINT newVegas:LeftHandMiddle3
										{
											OFFSET 4.596550 0.000000 0.000000
											CHANNELS 3 Xrotation Yrotation Zrotation
											End Site
											{
												OFFSET 0.057701 4.578827 0.399218
											}
										}
									}
								}
								JOINT newVegas:LeftHandRing1
								{
									OFFSET 17.732719 0.121887 -4.201567
									CHANNELS 3 Xrotation Yrotation Zrotation
									JOINT newVegas:LeftHandRing2
									{
										OFFSET 2.733170 0.000000 0.000000
										CHANNELS 3 Xrotation Yrotation Zrotation
										JOINT newVegas:LeftHandRing3
										{
											OFFSET 3.178268 0.000000 0.000000
											CHANNELS 3 Xrotation Yrotation Zrotation
											End Site
											{
												OFFSET 0.119102 3.170624 0.185394
											}
										}
									}
								}
								JOINT newVegas:LeftHandPinky1
								{
									OFFSET 15.989624 -0.606689 -7.535461
									CHANNELS 3 Xrotation Yrotation Zrotation
									JOINT newVegas:LeftHandPinky2
									{
										OFFSET 2.538986 0.000000 0.000000
										CHANNELS 3 Xrotation Yrotation Zrotation
										JOINT newVegas:LeftHandPinky3
										{
											OFFSET 2.593102 0.000000 0.000000
											CHANNELS 3 Xrotation Yrotation Zrotation
											End Site
											{
												OFFSET -0.150902 2.584198 0.152708
											}
										}
									}
								}
							}
							JOINT newVegas:Left_Sleeve
							{
								OFFSET 0.267448 -0.649796 0.577675
								CHANNELS 3 Xrotation Yrotation Zrotation
								End Site
								{
									OFFSET 0.000000 15.991241 0.000000
								}
							}
							JOINT newVegas:Left_CapeC
							{
								OFFSET 15.715958 -8.608795 -6.935905
								CHANNELS 3 Xrotation Yrotation Zrotation
								JOINT newVegas:Left_CapeC1
								{
									OFFSET 0.000000 -8.688499 0.000000
									CHANNELS 3 Xrotation Yrotation Zrotation
									End Site
									{
										OFFSET 0.000000 8.688499 0.000000
									}
								}
							}
						}
						JOINT newVegas:Left_CapeB
						{
							OFFSET 26.118385 -8.608795 -7.079235
							CHANNELS 3 Xrotation Yrotation Zrotation
							JOINT newVegas:Left_CapeB1
							{
								OFFSET 0.000000 -8.688499 0.000000
								CHANNELS 3 Xrotation Yrotation Zrotation
								End Site
								{
									OFFSET 0.000000 8.688499 0.000000
								}
							}
						}
						JOINT newVegas:Left_CapeA
						{
							OFFSET 5.115639 -8.608795 -10.395809
							CHANNELS 3 Xrotation Yrotation Zrotation
							JOINT newVegas:Left_CapeA1
							{
								OFFSET 0.000000 -8.688499 0.000000
								CHANNELS 3 Xrotation Yrotation Zrotation
								End Site
								{
									OFFSET 0.000000 8.688499 0.000000
								}
							}
						}
					}
				}
				JOINT newVegas:RightShoulder
				{
					OFFSET -15.263000 10.923401 -0.547700
					CHANNELS 3 Xrotation Yrotation Zrotation
					JOINT newVegas:RightArm
					{
						OFFSET -25.438599 -2.830597 -13.032500
						CHANNELS 3 Xrotation Yrotation Zrotation
						JOINT newVegas:RightForeArm
						{
							OFFSET -29.960503 0.000000 0.000000
							CHANNELS 3 Xrotation Yrotation Zrotation
							JOINT newVegas:RightHand
							{
								OFFSET -27.849251 0.000000 0.000000
								CHANNELS 3 Xrotation Yrotation Zrotation
								JOINT newVegas:RightHandThumb1
								{
									OFFSET -4.487587 -3.305161 6.305391
									CHANNELS 3 Xrotation Yrotation Zrotation
									JOINT newVegas:RightHandThumb2
									{
										OFFSET -5.480453 -3.164139 3.164143
										CHANNELS 3 Xrotation Yrotation Zrotation
										JOINT newVegas:RightHandThumb3
										{
											OFFSET -5.159721 -2.978973 2.978967
											CHANNELS 3 Xrotation Yrotation Zrotation
											End Site
											{
												OFFSET -2.494507 5.926697 1.738678
											}
										}
									}
								}
								JOINT newVegas:RightHandIndex1
								{
									OFFSET -18.578728 -0.527832 5.208049
									CHANNELS 3 Xrotation Yrotation Zrotation
									JOINT newVegas:RightHandIndex2
									{
										OFFSET -3.192009 0.000000 0.000000
										CHANNELS 3 Xrotation Yrotation Zrotation
										JOINT newVegas:RightHandIndex3
										{
											OFFSET -3.835129 0.000000 0.000000
											CHANNELS 3 Xrotation Yrotation Zrotation
											End Site
											{
												OFFSET 0.034599 3.816971 0.371180
											}
										}
									}
								}
								JOINT newVegas:RightHandMiddle1
								{
									OFFSET -18.476105 0.000000 0.000000
									CHANNELS 3 Xrotation Yrotation Zrotation
									JOINT newVegas:RightHandMiddle2
									{
										OFFSET -3.324875 0.000000 0.000000
										CHANNELS 3 Xrotation Yrotation Zrotation
										JOINT newVegas:RightHandMiddle3
										{
											OFFSET -4.596550 0.000000 0.000000
											CHANNELS 3 Xrotation Yrotation Zrotation
											End Site
											{
												OFFSET -0.057701 4.578827 0.399218
											}
										}
									}
								}
								JOINT newVegas:RightHandRing1
								{
									OFFSET -17.732719 0.121887 -4.201567
									CHANNELS 3 Xrotation Yrotation Zrotation
									JOINT newVegas:RightHandRing2
									{
										OFFSET -2.733170 0.000000 0.000000
										CHANNELS 3 Xrotation Yrotation Zrotation
										JOINT newVegas:RightHandRing3
										{
											OFFSET -3.178268 0.000000 0.000000
											CHANNELS 3 Xrotation Yrotation Zrotation
											End Site
											{
												OFFSET -0.119102 3.170624 0.185394
											}
										}
									}
								}
								JOINT newVegas:RightHandPinky1
								{
									OFFSET -15.989624 -0.606689 -7.535461
									CHANNELS 3 Xrotation Yrotation Zrotation
									JOINT newVegas:RightHandPinky2
									{
										OFFSET -2.538986 0.000000 0.000000
										CHANNELS 3 Xrotation Yrotation Zrotation
										JOINT newVegas:RightHandPinky3
										{
											OFFSET -2.593102 0.000000 0.000000
											CHANNELS 3 Xrotation Yrotation Zrotation
											End Site
											{
												OFFSET 0.150902 2.584198 0.152708
											}
										}
									}
								}
							}
							JOINT newVegas:Right_CapeC
							{
								OFFSET -15.715958 -8.608795 -6.935905
								CHANNELS 3 Xrotation Yrotation Zrotation
								JOINT newVegas:Right_CapeC1
								{
									OFFSET 0.000000 -8.688499 0.000000
									CHANNELS 3 Xrotation Yrotation Zrotation
									End Site
									{
										OFFSET 0.000000 8.688499 0.000000
									}
								}
							}
							JOINT newVegas:Right_Sleeve
							{
								OFFSET -0.267448 -0.649994 0.577675
								CHANNELS 3 Xrotation Yrotation Zrotation
								End Site
								{
									OFFSET 0.000000 15.991302 0.000000
								}
							}
						}
						JOINT newVegas:Right_CapeA
						{
							OFFSET -5.115540 -8.608795 -10.395824
							CHANNELS 3 Xrotation Yrotation Zrotation
							JOINT newVegas:Right_CapeA1
							{
								OFFSET 0.000000 -8.688499 0.000000
								CHANNELS 3 Xrotation Yrotation Zrotation
								End Site
								{
									OFFSET 0.000000 8.688499 0.000000
								}
							}
						}
						JOINT newVegas:Right_CapeB
						{
							OFFSET -26.118187 -8.608795 -7.079266
							CHANNELS 3 Xrotation Yrotation Zrotation
							JOINT newVegas:Right_CapeB1
							{
								OFFSET 0.000000 -8.688499 0.000000
								CHANNELS 3 Xrotation Yrotation Zrotation
								End Site
								{
									OFFSET 0.000000 8.688499 0.000000
								}
							}
						}
					}
				}
				JOINT newVegas:Left_Collar
				{
					OFFSET 18.625099 8.655502 8.828100
					CHANNELS 3 Xrotation Yrotation Zrotation
					JOINT newVegas:Left_Collar1
					{
						OFFSET 14.783401 10.540405 -1.259500
						CHANNELS 3 Xrotation Yrotation Zrotation
						End Site
						{
							OFFSET 0.000000 18.199875 0.000000
						}
					}
				}
				JOINT newVegas:Collar_Back
				{
					OFFSET 0.000000 15.630707 -20.132601
					CHANNELS 3 Xrotation Yrotation Zrotation
					End Site
					{
						OFFSET 0.000000 22.523010 0.000000
					}
				}
				JOINT newVegas:Left_Peck
				{
					OFFSET 17.239599 -5.132599 25.482599
					CHANNELS 3 Xrotation Yrotation Zrotation
					End Site
					{
						OFFSET 0.000000 22.523010 0.000000
					}
				}
				JOINT newVegas:Right_Peck
				{
					OFFSET -17.239599 -5.132202 25.482599
					CHANNELS 3 Xrotation Yrotation Zrotation
					End Site
					{
						OFFSET 0.000000 22.523010 0.000000
					}
				}
				JOINT newVegas:Right_Collar
				{
					OFFSET -18.625099 8.655792 8.828100
					CHANNELS 3 Xrotation Yrotation Zrotation
					JOINT newVegas:Right_Collar1
					{
						OFFSET -14.783401 10.539993 -1.259500
						CHANNELS 3 Xrotation Yrotation Zrotation
						End Site
						{
							OFFSET 0.000000 18.199631 0.000000
						}
					}
				}
			}
		}
		JOINT newVegas:Belly
		{
			OFFSET 0.000000 -6.540398 9.014299
			CHANNELS 3 Xrotation Yrotation Zrotation
			End Site
			{
				OFFSET 0.000000 11.566666 0.000000
			}
		}
	}
	JOINT newVegas:ElvisFacialAnim_Joint
	{
		OFFSET 1.000000 -95.330101 -8.825800
		CHANNELS 3 Xrotation Yrotation Zrotation
		End Site
		{
			OFFSET 0.000000 35.315800 0.000000
		}
	}
}
MOTION
Frames: 4
Frame Time: 0.033333
0.805799 16.568878 2.129967 -90.158176 4.183401 1.488512 -0.000000 -0.000000 -0.000000 -57.153073 9.618850 7.886624 78.838319 -4.339230 -2.910359 9.787061 18.414371 -2.979508 0.000000 -0.000004 0.000002 0.000002 0.000001 0.000001 -44.144657 2.601260 -2.325790 52.231870 0.285847 1.785404 53.487403 1.481172 7.505312 0.000001 0.000000 -0.000000 -0.000001 0.000001 -0.000000 4.589409 1.065711 -2.102159 9.099255 3.143407 -0.458735 9.099239 3.143410 -0.458736 -1.082218 -0.374512 -1.793093 -1.082243 -0.374509 -1.793099 -0.000000 0.000002 -0.000001 -1.082188 -0.374513 -1.793097 -1.082276 -0.374515 -1.793092 -0.000001 -0.000000 -0.000000 -0.000000 0.000002 -0.000001 0.470197 -6.197578 -7.045992 47.497047 -31.696968 -10.930776 67.038553 -100.649627 66.865257 6.550171 -4.334370 24.572956 -11.433347 -7.502515 6.789362 2.321140 6.714502 2.170918 0.000003 -0.000000 -0.000001 -0.023983 -0.779288 -8.680751 0.068006 0.764274 -16.879059 0.000001 -0.000006 0.000000 -0.137399 0.619973 -12.274824 -0.085880 -0.354747 -10.511365 -0.000000 -0.000002 -0.000002 -0.092245 7.427044 -16.709762 -0.123189 -1.634656 -13.116370 0.000000 -0.000001 -0.000000 -0.102788 13.410977 -11.521760 -0.510033 -5.458653 -22.584466 0.000000 -0.000002 0.000001 0.000001 0.000002 0.000002 0.000001 0.000002 0.000002 0.000000 0.000002 0.000002 0.000000 0.000002 0.000003 0.000000 0.000001 0.000003 0.000000 0.000002 0.000003 0.000000 0.000001 0.000002 -0.788723 18.030571 19.556891 0.051287 43.819007 34.402570 -0.068012 122.490304 0.097174 -40.085974 19.465798 12.406995 -6.896638 1.280035 -10.377016 2.321131 -6.714517 -2.170926 0.000002 -0.000003 -0.000003 -1.234561 0.594313 8.695263 0.120544 -1.119648 16.859791 0.000001 -0.000000 -0.000004 -1.244957 -0.860763 12.260517 -0.066865 0.147926 10.516248 0.000002 -0.000001 0.000003 1.309155 -7.007318 16.885865 -0.155975 1.883758 13.063299 -0.000001 -0.000001 -0.000003 3.073296 -12.759916 12.241023 -0.732806 6.665106 22.274065 0.000000 -0.000000 0.000002 -0.000001 0.000003 0.000000 -0.000002 -0.000001 0.000000 -0.000001 0.000002 0.000001 0.000000 0.000000 0.000002 0.000000 0.000000 0.000004 0.000000 0.000000 0.000002 -0.000000 0.000000 0.000004 0.000002 0.000000 0.000000 0.000002 0.000000 0.000000 0.000002 0.000000 0.000000 0.000002 0.000000 0.000000 0.000002 0.000000 0.000000 0.000002 0.000000 0.000000 0.000002 0.000000 0.000000 -0.000000 -0.000000 0.000000 -0.000000 -0.000000 -0.000000 
0.783556 16.648956 2.466621 -90.028423 4.390339 1.672929 -0.000000 -0.000000 0.000000 -58.012546 9.830130 7.712226 79.463452 -4.318149 -2.920997 10.875411 18.090301 -2.850633 -0.000001 0.000002 -0.000001 -0.000001 0.000000 0.000000 -43.974390 2.880655 -2.466952 51.841918 0.342604 1.784202 54.315816 2.059123 8.106463 -0.000002 -0.000000 0.000000 0.000000 0.000000 -0.000000 4.607238 1.095064 -2.142111 9.130691 3.237725 -0.458236 9.130688 3.237725 -0.458239 -1.159831 -0.360350 -1.854071 -1.159867 -0.360346 -1.854072 0.000001 0.000000 -0.000000 -1.159811 -0.360343 -1.854073 -1.159891 -0.360352 -1.854072 -0.000001 0.000000 -0.000001 0.000001 0.000000 0.000000 0.471305 -6.346974 -7.085820 47.845854 -31.760550 -10.110027 61.770749 -101.112420 61.458404 5.402577 -4.065114 25.960106 -11.649675 -7.950578 7.011465 2.321141 6.714503 2.170925 0.000001 -0.000003 -0.000001 -0.023976 -0.779285 -8.680750 0.068003 0.764273 -16.879055 -0.000000 0.000002 -0.000000 -0.137391 0.619974 -12.274824 -0.085882 -0.354752 -10.511365 -0.000000 0.000000 -0.000001 -0.092239 7.427048 -16.709768 -0.123187 -1.634666 -13.116373 -0.000000 -0.000006 -0.000001 -0.102786 13.410976 -11.521756 -0.510039 -5.458653 -22.584463 -0.000002 -0.000005 -0.000000 0.000002 -0.000002 -0.000001 0.000002 -0.000002 -0.000001 0.000001 -0.000002 -0.000001 0.000000 0.000002 0.000001 0.000000 0.000001 0.000003 0.000000 0.000002 0.000001 0.000000 0.000002 0.000002 -0.791739 18.078997 19.550054 -0.027520 44.007988 34.430587 -0.068442 122.537118 0.097766 -40.051485 19.300892 12.292434 -6.896641 1.280041 -10.377013 2.321129 -6.714512 -2.170924 0.000000 0.000001 0.000001 -1.234563 0.594319 8.695265 0.120544 -1.119650 16.859794 0.000003 -0.000003 0.000002 -1.244959 -0.860760 12.260516 -0.066865 0.147925 10.516243 0.000000 -0.000001 0.000000 1.309154 -7.007320 16.885869 -0.155975 1.883757 13.063301 -0.000001 -0.000001 -0.000002 3.073295 -12.759913 12.241024 -0.732808 6.665106 22.274065 0.000003 -0.000002 0.000001 -0.000001 -0.000003 0.000002 -0.000001 -0.000003 0.000001 -0.000001 -0.000003 0.000003 -0.000001 0.000000 0.000003 -0.000000 0.000001 0.000002 -0.000001 0.000000 0.000003 -0.000000 0.000001 0.000002 -0.000002 0.000000 0.000000 -0.000002 0.000000 0.000000 -0.000002 0.000000 0.000000 -0.000002 0.000000 0.000000 -0.000002 0.000000 0.000000 -0.000002 0.000000 0.000000 -0.000002 0.000000 0.000000 0.000000 -0.000000 0.000000 -0.000000 -0.000000 0.000000 
0.808622 16.709175 2.636665 -89.874880 4.613291 1.780468 -0.000000 0.000000 0.000000 -58.959135 10.223568 7.378143 79.863107 -4.163700 -2.916665 12.585949 18.175359 -2.252193 0.000001 -0.000001 -0.000001 0.000001 0.000002 -0.000000 -44.143861 3.113471 -2.544882 52.048374 0.382709 1.794341 54.459246 1.985030 8.422152 0.000000 -0.000000 0.000000 0.000001 0.000001 -0.000000 4.639618 1.157481 -2.125789 9.192881 3.367753 -0.471419 9.192904 3.367751 -0.471416 -1.253366 -0.356887 -1.912064 -1.253351 -0.356884 -1.912066 -0.000000 0.000000 0.000000 -1.253279 -0.356883 -1.912065 -1.253421 -0.356886 -1.912065 -0.000001 0.000000 0.000000 -0.000000 0.000000 0.000000 0.476328 -6.432491 -6.991190 48.190987 -32.137150 -9.236298 58.576993 -101.485498 58.242293 4.117156 -4.033286 27.565919 -11.894545 -8.307138 6.953026 2.321137 6.714504 2.170919 0.000002 -0.000002 -0.000003 -0.023980 -0.779288 -8.680748 0.068004 0.764276 -16.879064 0.000002 -0.000001 -0.000000 -0.137393 0.619976 -12.274821 -0.085878 -0.354751 -10.511362 -0.000000 0.000002 -0.000005 -0.092240 7.427050 -16.709766 -0.123184 -1.634659 -13.116370 0.000000 -0.000001 -0.000000 -0.102784 13.410974 -11.521753 -0.510036 -5.458653 -22.584463 0.000000 -0.000005 -0.000002 0.000001 0.000000 -0.000001 0.000001 0.000000 -0.000001 0.000001 -0.000000 -0.000001 0.000001 -0.000001 -0.000001 0.000001 -0.000002 0.000000 0.000001 -0.000001 -0.000001 0.000001 -0.000002 -0.000000 -0.804646 18.113262 19.620750 0.002543 44.034728 34.451703 -0.068447 122.638423 0.098047 -40.086705 19.162022 12.361096 -6.896638 1.280043 -10.377015 2.321131 -6.714514 -2.170930 0.000000 0.000004 0.000002 -1.234561 0.594323 8.695265 0.120544 -1.119647 16.859793 0.000001 0.000000 0.000000 -1.244956 -0.860757 12.260518 -0.066865 0.147930 10.516248 0.000001 0.000000 0.000002 1.309155 -7.007313 16.885867 -0.155975 1.883757 13.063302 -0.000001 -0.000003 0.000005 3.073294 -12.759915 12.241024 -0.732808 6.665106 22.274067 0.000002 0.000002 -0.000000 -0.000003 -0.000001 0.000000 -0.000001 0.000002 -0.000002 -0.000003 -0.000001 0.000001 -0.000001 0.000001 -0.000003 -0.000000 0.000000 -0.000001 -0.000001 0.000001 -0.000003 -0.000000 -0.000000 -0.000001 -0.000001 -0.000000 -0.000000 -0.000001 -0.000000 -0.000000 -0.000001 -0.000000 -0.000000 -0.000001 -0.000000 -0.000000 -0.000001 -0.000000 -0.000000 -0.000001 -0.000000 -0.000000 -0.000001 -0.000000 -0.000000 0.000000 0.000000 -0.000000 -0.000000 0.000000 0.000000 
0.856854 16.759865 2.709061 -89.707732 4.854781 1.835624 0.000000 0.000000 -0.000000 -60.067300 10.903471 6.987032 80.227532 -3.875387 -2.898952 14.753801 18.679531 -1.072014 -0.000000 0.000001 -0.000001 0.000000 0.000001 -0.000001 -44.448617 3.292520 -2.601827 52.497821 0.409955 1.810597 54.262721 1.638811 8.607783 -0.000001 0.000000 -0.000000 0.000001 -0.000000 -0.000000 4.690327 1.246297 -2.092602 9.291586 3.540236 -0.495648 9.291562 3.540237 -0.495651 -1.353427 -0.365718 -1.970214 -1.353431 -0.365720 -1.970211 0.000001 -0.000001 0.000001 -1.353459 -0.365720 -1.970213 -1.353376 -0.365715 -1.970215 -0.000002 -0.000001 0.000000 0.000001 -0.000001 0.000001 0.484988 -6.475711 -6.793263 48.505111 -32.714130 -8.285835 56.694221 -101.748392 56.413773 3.109944 -4.019973 28.976617 -12.127462 -8.673571 6.952000 2.321140 6.714505 2.170918 -0.000003 -0.000001 -0.000004 -0.023979 -0.779286 -8.680756 0.068008 0.764280 -16.879061 0.000002 -0.000002 -0.000001 -0.137396 0.619973 -12.274826 -0.085881 -0.354748 -10.511367 -0.000001 0.000002 -0.000000 -0.092244 7.427042 -16.709771 -0.123186 -1.634657 -13.116373 -0.000001 0.000001 0.000000 -0.102791 13.410974 -11.521756 -0.510038 -5.458651 -22.584466 -0.000002 -0.000005 0.000001 -0.000000 -0.000001 -0.000003 -0.000000 -0.000001 -0.000003 -0.000000 -0.000001 -0.000003 -0.000002 0.000003 0.000001 -0.000002 0.000002 0.000002 -0.000002 0.000003 0.000001 -0.000002 0.000002 0.000002 -0.812249 18.075032 19.697948 0.079596 43.993583 34.520913 -0.068373 122.735125 0.098318 -40.200161 19.073730 12.569207 -6.896641 1.280038 -10.377017 2.321132 -6.714515 -2.170931 0.000002 0.000002 0.000003 -1.234561 0.594318 8.695265 0.120544 -1.119645 16.859791 0.000001 0.000000 0.000000 -1.244957 -0.860760 12.260517 -0.066862 0.147931 10.516247 -0.000002 0.000000 0.000000 1.309156 -7.007318 16.885870 -0.155977 1.883753 13.063303 -0.000001 0.000001 0.000003 3.073296 -12.759914 12.241024 -0.732807 6.665103 22.274068 -0.000002 0.000000 -0.000003 0.000001 0.000003 -0.000000 -0.000001 0.000002 -0.000001 0.000001 0.000002 -0.000000 -0.000000 0.000001 -0.000000 0.000000 0.000000 -0.000001 -0.000000 0.000001 -0.000000 -0.000000 -0.000000 -0.000001 0.000001 -0.000000 -0.000000 0.000001 -0.000000 -0.000000 0.000001 -0.000000 -0.000000 0.000001 -0.000000 -0.000000 0.000001 -0.000000 -0.000000 0.000001 -0.000000 -0.000000 0.000001 -0.000000 -0.000000 0.000001 0.000000 -0.000000 0.000000 0.000000 -0.000000 
